<svg version="1" xmlns="http://www.w3.org/2000/svg" width="682.667" height="682.667" viewBox="0 0 512.000000 512.000000"><path d="M257 14.5c-.8.2-4.9.9-9 1.5-8.6 1.4-16.2 4.2-20.5 7.4-2.1 1.6-5.1 2.5-9.8 3-23.7 2.6-45.2 15.4-59.5 35.4-13.8 19.4-17.4 48.1-10.8 84.7 1.4 7.7 3.3 19.4 4.2 26 2.6 20.2 5.8 28.6 14.4 37.6 2.8 3 4.7 4.5 4.2 3.4s-2-6.1-3.3-11c-2.1-8-2.4-11-2.3-27 .2-17.2.3-18.4 2.9-25 6.7-17.1 13-24.4 30.4-36 11.6-7.6 24.1-18.7 24.1-21.4 0-2 1.6-1.1 6.6 3.7 13.4 12.9 25.8 20 41.4 23.8 28.2 6.7 33.4 8.9 44.2 19.2 4.3 4.1 7.9 6.8 8.3 6.3 1-1.8-1.2-11.7-3.9-16.9-1.4-2.7-4.1-6.6-6-8.7l-3.5-3.7 3.7.7c5.5.9 15.9 6.1 21 10.2 5.8 4.8 15.6 19.7 17.3 26.5 1 3.6 1.3 10.5 1.2 21.3-.2 22.2-2.8 33.4-11.8 50.3l-4.5 8.5 4.2-3.5c18-14.6 33.8-48.1 39.7-83.8 7.1-43.6-.8-72.9-26.8-99.1-9.9-10-18.8-16-34.5-23.4-12.3-5.9-19-7.9-31.6-9.4-7.6-1-26.2-1.3-30-.6z"/><path d="M209.2 155.1c-6.4 1.1-8.7 2.2-10.8 5.4-1.2 1.9-1.3 2.8-.4 4.5 1.8 3.3 4.9 4 11 2.4 7.1-1.8 7.8-1.8 15.5.7 6.1 2 6.6 2.1 9 .5 3.3-2.2 3.4-6.9.2-9-6.1-4-16.2-5.9-24.5-4.5zM289.5 160.4c-4.5 1.3-8.5 4.4-8.5 6.8 0 .5 1.2 2 2.6 3.4 1.8 1.9 3.1 2.4 4.7 1.9 1.2-.3 5.1-.9 8.7-1.2 5.4-.4 7.5-.1 11.8 1.7 6.1 2.6 9.9 2.1 10.8-1.4 1.1-4.4 0-6-5.7-8.9-6.8-3.4-17-4.4-24.4-2.3zM242.8 200.7c-2.3 2.5-2.3 4.8 0 7.1 1.5 1.5 4.2 2 13.6 2.6 13.1.8 16.6-.2 16.6-4.8 0-4.5-2.7-5.6-16.1-6.2-11.5-.6-12.5-.5-14.1 1.3zM216.3 231.5c-1.1.8-2.4 2.6-2.7 4-2.4 9.7 15.5 17 44.4 18.2 21.9.9 37.6-2.7 40.7-9.2 2-4.3.5-8.8-3.7-10.5-2.3-1-3.4-.8-6.7.9-6.5 3.2-16.3 4.5-30.8 3.8-14.7-.8-23.9-2.6-30.4-6.2-5-2.9-7.8-3.1-10.8-1zM168 281.6c-25.1 5.3-41.7 19.8-56 48.9-11.6 23.6-12.3 26.5-17.5 76-2.5 23.7-4.5 45.4-4.5 48.2 0 13.5 11.2 26.2 31.8 36.3 28 13.7 64 19.6 114.2 18.8l19.5-.3 3.4-10c3.1-9.1 3.4-11.1 3.5-22 .1-6.9-.5-14.1-1.2-17l-1.3-5.1-9.2-1.8c-5.1-1.1-20.2-4.8-33.7-8.3-56.3-14.8-74.9-18.4-93.3-18.3-6.2 0-12 .1-13.1.3-1.5.1-2.3-1.2-4.2-6.6-7.7-22.5-6.8-53.7 2.1-76 5.9-14.7 21.2-24.3 35.3-22.2 6.4 1 9.5 2.7 18.2 10.5 19.7 17.7 23.6 21 24.7 21 1.8 0 9.6 6.6 10.4 8.8.5 1.1 16.5 12.9 28.8 21.1 5.2 3.5 15.7 9.7 23.5 13.9 31.9 17 68.8 41.5 80.8 53.5 2.6 2.7 4.5 3.7 6.7 3.7 5.1 0 7.1 2.9 7.1 10.4 0 5.1.7 8.1 3.5 14.8 4.8 11.3 9.7 17.6 16.5 21.1 5.1 2.6 6.2 2.8 14.5 2.5 7.5-.3 10.1-.9 15.7-3.5 11.6-5.5 20-15.4 21.4-25.4.7-5.5-3.2-105.5-4.7-116.8-1.9-15.3-9.2-31.3-20.4-44.5-14.9-17.5-39.4-28.6-63.4-28.6h-7.6l4.2 2.1c2.4 1.2 5.4 3.4 6.7 5 2.1 2.4 2.6 2.6 3.6 1.4 3.1-3.7 15 .8 20.2 7.7 5.9 7.8 7.2 12.7 9.3 35.3.8 8.8 1.7 19 2.1 22.6l.7 6.6-6.1 3.7c-8.2 4.9-17.7 9.2-29.6 13.2-5.5 1.9-10.2 3.4-10.4 3.4-.2 0-1.3-2.1-2.4-4.8-2.8-6-2.9-18.9-.3-28 1-3.4 1.6-6.4 1.4-6.7-.3-.2-13.9 4.1-30.4 9.6-16.5 5.4-31.1 9.8-32.5 9.7-2.3-.3-3.1-2-11.5-27l-9-26.7 2.3-2.4 2.3-2.4-4.8-1.3c-7.4-1.9-20.5-8.5-23.7-11.9-2.1-2.2-3-4.3-3.4-8-.4-4.5-.7-4.9-3.4-5.5-5.6-1.1-30.2-.5-36.8 1z"/><path d="M304 285c0 1.3 3 1.3 5 0 1.1-.7.7-1-1.7-1-1.8 0-3.3.4-3.3 1z"/></svg>